# xmcd
#
# Track frame offsets: 
#        300
#        8898
#        24295
#        38313
#        53106
#        67142
#        75217
#        88541
#        101996
#        114316
#        127290
#        151605
#        168426
#        187426
#        205901
#        221441
#        240279
#
# Disc length: 3433 seconds
#
# Revision: 6
# Processed by: cddbd v1.5.2PL0 Copyright (c) Steve Scherf et al.
# Submitted via: ExactAudioCopy v0.99pb5
#
DISCID=d90d6511
DTITLE=The Blues Brothers - The Blues Brothers Complete [CD1)
DYEAR=1980
DGENRE=Contemporary Blues
TTITLE0=I Cant Turn You Loose
TTITLE1=Everybody Needs Somebody To Love
TTITLE2=Gimme Some Lovin
TTITLE3=Think
TTITLE4=Soul Man
TTITLE5=Soul Finder
TTITLE6=Messin With The Kid
TTITLE7=Hey Bartender
TTITLE8=(I Got Everything I Need) Almost
TTITLE9=Rubber Buiscuit
TTITLE10=Shotgun Blues
TTITLE11=Groove Me
TTITLE12=I Dont Know
TTITLE13="B" Movie Box Car Blues
TTITLE14=Flipflop And Fly
TTITLE15=She Caught The Katy
TTITLE16=Peter Gunn Theme
EXTD=
EXTT0=
EXTT1=
EXTT2=
EXTT3=
EXTT4=
EXTT5=
EXTT6=
EXTT7=
EXTT8=
EXTT9=
EXTT10=
EXTT11=
EXTT12=
EXTT13=
EXTT14=
EXTT15=
EXTT16=
PLAYORDER=
